<svg width="20" height="33" viewBox="0 0 20 33" fill="none" xmlns="http://www.w3.org/2000/svg">
<g clip-path="url(#clip0)">
<path d="M10.0812 0C7.47128 0.00247277 4.96893 1.03646 3.1234 2.87502C1.27788 4.71358 0.23997 7.20649 0.237488 9.8066C0.23997 12.4067 1.5636 14.6923 3.1234 16.7373C4.36748 18.3683 7.04949 22.8414 8.88482 28.8378C9.20454 29.8824 11.0248 29.8981 11.3542 28.8565C13.2563 22.841 15.8024 18.5812 17.0382 16.7373C18.5822 14.4334 19.9217 12.4065 19.925 9.8066C19.9217 7.20674 18.8835 4.71431 17.0382 2.87592C15.1928 1.03754 12.6909 0.00329514 10.0812 0Z" fill="#268F40"/>
<path d="M3.48124 7.29736H4.05C4.18405 7.28324 4.31957 7.29974 4.44628 7.34559C4.57298 7.39144 4.68754 7.46544 4.78125 7.56198C4.94219 7.78729 5.01952 8.06132 5 8.33717C5.01161 8.47545 4.99548 8.61466 4.95256 8.74667C4.90964 8.87869 4.84078 9.00088 4.74999 9.10613C4.66174 9.18926 4.55763 9.25387 4.44382 9.29612C4.33001 9.33837 4.20883 9.3574 4.0875 9.35207H3.48124V7.29736ZM3.48124 10.3545H4.21249C4.51168 10.3576 4.80968 10.3167 5.09687 10.2331C5.34659 10.1586 5.57768 10.0323 5.77499 9.86264C5.96774 9.69207 6.1176 9.4788 6.2125 9.24C6.32195 8.94958 6.37498 8.64109 6.36875 8.33094C6.36895 8.08101 6.33745 7.83206 6.275 7.59C6.21573 7.35441 6.10945 7.13312 5.9625 6.93934C5.81014 6.74335 5.61301 6.58646 5.3875 6.48169C5.11265 6.35522 4.81196 6.29446 4.50937 6.30424H2.10625V13.0537H3.475L3.48124 10.3545Z" fill="white"/>
<path d="M7.84687 9.81906C7.8477 9.20666 8.09227 8.61958 8.52694 8.18655C8.96161 7.75352 9.55091 7.50988 10.1656 7.50906C10.7803 7.50988 11.3696 7.75352 11.8043 8.18655C12.239 8.61958 12.4835 9.20666 12.4844 9.81906C12.4811 10.4298 12.2354 11.0145 11.801 11.4455C11.3666 11.8765 10.7787 12.1189 10.1656 12.1197C9.55091 12.1189 8.96161 11.8753 8.52694 11.4422C8.09227 11.0092 7.8477 10.4221 7.84687 9.80972V9.81906ZM13.6781 9.80972C13.6765 8.88245 13.3058 7.99368 12.6473 7.3383C11.9889 6.68291 11.0964 6.31441 10.1656 6.31358C9.23485 6.31441 8.34238 6.68291 7.68393 7.3383C7.02548 7.99368 6.65478 8.88245 6.65312 9.80972C6.65395 10.7375 7.02428 11.6271 7.68282 12.2831C8.34137 12.9392 9.23431 13.3081 10.1656 13.309C11.0937 13.3057 11.9828 12.9369 12.6391 12.2832C13.2953 11.6294 13.6655 10.7436 13.6688 9.81906" fill="white"/>
<path d="M16.9281 9.10613C16.8401 9.18955 16.736 9.25435 16.6221 9.29662C16.5083 9.33889 16.387 9.35775 16.2656 9.35207H15.6594V7.29735H16.2281C16.3622 7.28324 16.4977 7.29973 16.6244 7.34559C16.7511 7.39144 16.8657 7.46544 16.9594 7.56198C17.1203 7.78728 17.1976 8.06132 17.1781 8.33716C17.1904 8.4755 17.1747 8.61488 17.1317 8.747C17.0887 8.87912 17.0195 9.00126 16.9281 9.10613V9.10613ZM17.9531 9.86264C18.1459 9.69207 18.2957 9.4788 18.3906 9.24C18.5016 8.94999 18.5547 8.6412 18.5469 8.33094C18.5471 8.08101 18.5156 7.83206 18.4531 7.58999C18.3934 7.35458 18.2871 7.13338 18.1406 6.93934C17.9876 6.74402 17.7906 6.58726 17.5656 6.48169C17.2897 6.35529 16.988 6.29454 16.6844 6.30424H14.2937V13.0537H15.6625V10.3545H16.3937C16.6929 10.3578 16.991 10.3169 17.2781 10.2331C17.5281 10.1593 17.7594 10.033 17.9562 9.86264" fill="white"/>
</g>
<defs>
<clipPath id="clip0">
<rect width="20" height="33" fill="white"/>
</clipPath>
</defs>
</svg>
