<svg width="64" height="107" viewBox="0 0 64 107" fill="none" xmlns="http://www.w3.org/2000/svg">
<g clip-path="url(#clip0)">
<path d="M32.2518 1.95517C24.161 1.96281 16.4037 5.15877 10.6825 10.8416C4.96143 16.5244 1.7439 24.2298 1.73621 32.2665C1.7439 40.3032 5.84715 47.3679 10.6825 53.6886C15.2107 59.6077 25.8839 77.6371 31.2388 101.178C31.481 102.243 33.105 102.261 33.3665 101.201C39.2626 77.2988 49.3292 60.3671 53.8183 53.6886C58.6049 46.5674 62.7572 40.3024 62.7675 32.2665C62.7572 24.2306 59.5389 16.5267 53.8183 10.8444C48.0978 5.16212 40.3419 1.96535 32.2518 1.95517Z" fill="#268F40" stroke="black" stroke-width="2"/>
<path d="M12.3129 24.0045H13.9694C14.3599 23.9635 14.7546 24.0114 15.1236 24.1446C15.4927 24.2777 15.8263 24.4926 16.0993 24.773C16.568 25.4273 16.7933 26.2231 16.7364 27.0242C16.7702 27.4258 16.7233 27.8301 16.5983 28.2134C16.4733 28.5968 16.2727 28.9517 16.0083 29.2573C15.7512 29.4987 15.448 29.6864 15.1165 29.8091C14.785 29.9318 14.432 29.987 14.0786 29.9716H12.3129V24.0045ZM12.3129 32.8828H14.4427C15.3141 32.8918 16.1821 32.773 17.0186 32.5302C17.7459 32.3138 18.419 31.9472 18.9937 31.4543C19.5551 30.959 19.9916 30.3396 20.268 29.6461C20.5868 28.8027 20.7412 27.9068 20.7231 27.0061C20.7237 26.2803 20.6319 25.5573 20.45 24.8543C20.2774 24.1702 19.9679 23.5275 19.5398 22.9648C19.0961 22.3956 18.5219 21.94 17.8651 21.6357C17.0646 21.2684 16.1887 21.092 15.3074 21.1204H8.30798V40.7214H12.2947L12.3129 32.8828Z" fill="white"/>
<path d="M25.0283 31.3277C25.0307 29.5493 25.7431 27.8443 27.0091 26.5868C28.2751 25.3292 29.9916 24.6217 31.782 24.6193C33.5725 24.6217 35.2889 25.3292 36.5549 26.5868C37.821 27.8443 38.5333 29.5493 38.5357 31.3277C38.5261 33.1015 37.8106 34.7995 36.5453 36.0512C35.28 37.3029 33.5677 38.0067 31.782 38.0091C29.9916 38.0067 28.2751 37.2991 27.0091 36.0416C25.7431 34.784 25.0307 33.0791 25.0283 31.3006V31.3277ZM42.0126 31.3006C42.0078 28.6077 40.9281 26.0267 39.0103 24.1234C37.0924 22.2201 34.493 21.1499 31.782 21.1475C29.071 21.1499 26.4716 22.2201 24.5537 24.1234C22.6359 26.0267 21.5562 28.6077 21.5514 31.3006C21.5538 33.995 22.6324 36.5784 24.5505 38.4837C26.4686 40.3889 29.0694 41.4604 31.782 41.4627C34.4851 41.4532 37.0748 40.3824 38.9862 38.4837C40.8977 36.5851 41.9757 34.0128 41.9853 31.3277" fill="white"/>
<path d="M51.4787 29.2573C51.2222 29.4996 50.9191 29.6878 50.5875 29.8105C50.2558 29.9333 49.9026 29.9881 49.5491 29.9716H47.7833V24.0045H49.4398C49.8303 23.9635 50.225 24.0114 50.5941 24.1446C50.9631 24.2777 51.2968 24.4926 51.5697 24.773C52.0385 25.4273 52.2637 26.2231 52.2069 27.0242C52.2427 27.4259 52.1967 27.8307 52.0716 28.2144C51.9465 28.5981 51.7449 28.9528 51.4787 29.2573V29.2573ZM54.4641 31.4543C55.0255 30.959 55.462 30.3396 55.7384 29.6461C56.0616 28.8039 56.2162 27.9071 56.1935 27.0061C56.1941 26.2803 56.1024 25.5573 55.9205 24.8543C55.7464 24.1707 55.437 23.5283 55.0103 22.9648C54.5645 22.3976 53.9908 21.9423 53.3355 21.6357C52.5317 21.2687 51.653 21.0922 50.7687 21.1204H43.8057V40.7214H47.7924V32.8828H49.9222C50.7937 32.8925 51.6618 32.7736 52.4981 32.5302C53.2263 32.3158 53.8998 31.949 54.4732 31.4543" fill="white"/>
</g>
<defs>
<clipPath id="clip0">
<rect width="64" height="105.09" fill="white" transform="translate(0 0.95517)"/>
</clipPath>
</defs>
</svg>
